<?xml version="1.0" standalone="no"?>
<!DOCTYPE svg PUBLIC "-//W3C//DTD SVG 20010904//EN"
 "http://www.w3.org/TR/2001/REC-SVG-20010904/DTD/svg10.dtd">
<svg version="1.0" xmlns="http://www.w3.org/2000/svg"
 width="626.000000pt" height="626.000000pt" viewBox="0 0 626.000000 626.000000"
 preserveAspectRatio="xMidYMid meet">
<metadata>
Created by potrace 1.14, written by Peter Selinger 2001-2017
</metadata>
<g transform="translate(0.000000,626.000000) scale(0.100000,-0.100000)"
fill="#000000" stroke="none">
<path d="M3007 6254 c-1 -1 -47 -4 -103 -8 -55 -4 -109 -8 -120 -10 -10 -2
-46 -7 -79 -10 -33 -4 -67 -9 -75 -11 -8 -2 -33 -6 -55 -10 -22 -3 -47 -7 -55
-10 -8 -2 -26 -6 -40 -9 -89 -15 -391 -105 -475 -141 -16 -7 -59 -25 -95 -40
-131 -55 -486 -245 -510 -274 -3 -3 -34 -26 -70 -50 -202 -138 -474 -395 -646
-611 -327 -413 -556 -927 -634 -1425 -6 -38 -13 -81 -15 -95 -2 -14 -7 -56
-11 -95 -3 -38 -8 -81 -10 -95 -5 -38 -5 -407 1 -470 2 -30 7 -73 10 -95 2
-22 7 -60 10 -85 5 -40 15 -99 31 -195 11 -60 65 -262 95 -355 158 -486 438
-930 814 -1291 62 -59 98 -91 195 -173 254 -212 614 -410 960 -528 177 -60
321 -95 525 -128 253 -42 595 -47 870 -14 49 6 278 47 323 58 12 3 30 8 40 10
172 39 420 130 622 229 423 206 808 522 1103 904 155 201 296 440 397 676 37
86 117 308 125 347 2 8 12 49 24 90 24 89 59 262 67 328 3 26 7 58 9 72 26
145 26 632 1 780 -3 14 -7 48 -11 75 -9 73 -53 277 -80 375 -96 341 -262 688
-467 975 -140 196 -353 424 -544 584 -101 84 -289 221 -303 221 -5 0 -11 4
-13 8 -4 10 -105 72 -118 72 -6 0 -10 5 -10 11 0 5 -4 8 -9 4 -5 -3 -13 0 -16
6 -10 16 -244 129 -375 181 -190 76 -442 148 -600 173 -25 4 -54 9 -65 11 -11
2 -40 7 -65 10 -25 3 -56 7 -70 9 -84 12 -472 28 -483 19z m393 -188 c55 -7
86 -10 170 -22 38 -5 173 -31 257 -49 84 -19 282 -82 386 -124 561 -224 1025
-597 1368 -1101 24 -36 48 -73 54 -82 117 -198 185 -336 250 -503 169 -437
230 -908 179 -1376 -4 -41 -8 -76 -9 -79 -1 -3 -5 -30 -9 -60 -14 -97 -57
-282 -93 -400 -269 -877 -928 -1578 -1791 -1904 -175 -66 -444 -136 -583 -151
-30 -4 -60 -8 -67 -10 -59 -19 -517 -27 -662 -12 -601 64 -1118 279 -1590 660
-91 74 -323 305 -404 403 -321 391 -555 904 -630 1384 -21 130 -24 157 -33
265 -12 158 -6 461 13 585 6 42 32 193 39 235 41 215 140 499 255 727 425 844
1257 1452 2175 1589 39 5 84 12 100 14 17 3 71 8 120 11 50 4 91 8 93 9 6 5
357 -3 412 -9z"/>
<path d="M3068 5715 c-2 -1 -50 -5 -108 -8 -106 -6 -200 -18 -300 -37 -30 -6
-66 -13 -80 -15 -61 -11 -81 -17 -178 -45 -213 -64 -404 -148 -593 -260 -121
-73 -305 -208 -399 -292 l-52 -48 733 -1 c404 0 763 -2 799 -4 135 -6 306 -17
335 -20 17 -2 57 -7 90 -10 33 -3 67 -8 75 -10 8 -2 33 -6 54 -10 58 -8 211
-50 292 -79 281 -101 481 -304 543 -549 26 -101 31 -144 31 -281 3 -497 -228
-847 -644 -975 -37 -11 -77 -21 -87 -21 -27 0 -23 -23 9 -56 16 -16 64 -72
107 -124 44 -52 82 -97 85 -100 3 -3 60 -70 127 -150 66 -80 149 -179 184
-220 34 -41 121 -145 193 -230 72 -85 133 -157 136 -160 3 -3 23 -25 44 -50
51 -59 183 -196 232 -240 92 -84 274 -210 303 -210 4 0 21 -6 37 -14 71 -36
77 -34 138 46 32 40 63 80 69 88 7 8 23 33 37 55 13 22 28 42 32 43 4 2 8 8 8
13 0 5 15 32 34 61 146 229 304 663 332 913 3 28 8 57 10 65 18 53 25 447 12
595 -44 468 -215 913 -503 1300 -108 146 -284 333 -405 431 -19 16 -40 33 -46
39 -6 5 -23 19 -39 30 -15 11 -39 29 -54 40 -96 74 -293 193 -417 251 -165 77
-420 165 -547 188 -15 3 -35 7 -45 10 -34 10 -215 35 -304 41 -82 7 -276 13
-280 10z"/>
<path d="M1104 4732 c-127 -161 -255 -373 -334 -551 -104 -237 -186 -537 -205
-753 -3 -29 -7 -69 -10 -88 -6 -41 -6 -320 -1 -400 37 -519 234 -1019 564
-1432 34 -43 59 -66 70 -63 9 1 42 6 72 10 175 24 265 111 298 290 9 53 9
2769 -1 2819 -10 52 -39 115 -68 148 -48 54 -176 98 -283 98 -39 0 -44 -4
-102 -78z"/>
<path d="M2499 4705 c-3 -2 -21 -5 -42 -7 l-37 -2 0 -718 c0 -395 3 -718 8
-719 4 0 16 -2 27 -5 60 -12 328 -15 392 -4 286 48 507 279 563 590 18 98 15
261 -6 399 -19 120 -85 246 -165 315 -59 50 -188 113 -274 132 -65 15 -455 31
-466 19z"/>
<path d="M2421 2391 c0 -311 5 -593 10 -626 24 -158 91 -244 222 -289 62 -21
86 -25 198 -32 l95 -7 3 -92 c1 -68 -2 -94 -11 -97 -7 -2 -365 -4 -796 -4
l-783 1 53 -48 c74 -66 264 -209 338 -254 107 -66 123 -75 220 -123 300 -151
612 -240 930 -267 156 -13 490 -7 577 11 11 2 43 8 70 11 26 4 64 11 83 15 19
5 46 11 60 14 169 30 423 121 623 223 98 50 318 184 352 215 16 14 21 18 85
68 25 19 64 53 88 75 24 22 48 42 53 43 38 14 -55 17 -518 17 l-527 0 -65 89
c-36 50 -155 214 -263 366 -109 151 -204 284 -212 295 -8 11 -72 99 -141 195
-69 96 -136 189 -148 205 -12 17 -52 73 -89 125 -37 52 -73 103 -81 113 -8 10
-63 86 -123 171 l-109 153 -98 0 -97 0 1 -566z"/>
</g>
</svg>
